<mxfile host="app.diagrams.net" modified="2022-04-15T07:36:05.239Z" agent="5.0 (Windows NT 10.0; Win64; x64) AppleWebKit/537.36 (KHTML, like Gecko) Chrome/100.0.4896.75 Safari/537.36" etag="oakIRzs-ZnygXh9qcWAt" version="17.4.4" type="github">
  <diagram id="D7xGU6zM07jBhpZCtbou" name="Page-1">
    <mxGraphModel dx="1108" dy="450" grid="1" gridSize="10" guides="1" tooltips="1" connect="1" arrows="1" fold="1" page="1" pageScale="1" pageWidth="850" pageHeight="1100" math="0" shadow="0">
      <root>
        <mxCell id="0" />
        <mxCell id="1" parent="0" />
        <mxCell id="_Pa6N6d9jXE5rgT0WQsV-1" value="" style="rounded=0;whiteSpace=wrap;html=1;fillColor=#F8CECC;" vertex="1" parent="1">
          <mxGeometry x="745" y="280" width="330" height="200" as="geometry" />
        </mxCell>
        <mxCell id="_Pa6N6d9jXE5rgT0WQsV-2" value="The resident" style="shape=umlActor;verticalLabelPosition=bottom;labelBackgroundColor=#ffffff;verticalAlign=top;html=1;outlineConnect=0;fillColor=#FFE599;" vertex="1" parent="1">
          <mxGeometry x="280" y="180" width="30" height="60" as="geometry" />
        </mxCell>
        <mxCell id="_Pa6N6d9jXE5rgT0WQsV-3" value="" style="edgeStyle=orthogonalEdgeStyle;rounded=0;orthogonalLoop=1;jettySize=auto;html=1;" edge="1" parent="1" target="_Pa6N6d9jXE5rgT0WQsV-5">
          <mxGeometry relative="1" as="geometry">
            <mxPoint x="340" y="210" as="sourcePoint" />
          </mxGeometry>
        </mxCell>
        <mxCell id="_Pa6N6d9jXE5rgT0WQsV-4" value="" style="edgeStyle=orthogonalEdgeStyle;rounded=0;orthogonalLoop=1;jettySize=auto;html=1;" edge="1" parent="1" source="_Pa6N6d9jXE5rgT0WQsV-5" target="_Pa6N6d9jXE5rgT0WQsV-7">
          <mxGeometry relative="1" as="geometry" />
        </mxCell>
        <mxCell id="_Pa6N6d9jXE5rgT0WQsV-5" value="&lt;div&gt;&lt;font style=&quot;font-size: 14px&quot;&gt;Navigates to &quot;&lt;b&gt;verify number or email ID&lt;/b&gt;&quot;&lt;/font&gt;&lt;br&gt;&lt;/div&gt;" style="rounded=1;whiteSpace=wrap;html=1;fillColor=#F8CECC;arcSize=10;" vertex="1" parent="1">
          <mxGeometry x="410" y="180" width="120" height="60" as="geometry" />
        </mxCell>
        <mxCell id="_Pa6N6d9jXE5rgT0WQsV-6" value="" style="edgeStyle=orthogonalEdgeStyle;rounded=0;orthogonalLoop=1;jettySize=auto;html=1;" edge="1" parent="1" source="_Pa6N6d9jXE5rgT0WQsV-7" target="_Pa6N6d9jXE5rgT0WQsV-9">
          <mxGeometry relative="1" as="geometry" />
        </mxCell>
        <mxCell id="_Pa6N6d9jXE5rgT0WQsV-7" value="&lt;font style=&quot;font-size: 14px&quot;&gt;&lt;br&gt;1.&amp;nbsp; Enters UIN/VID&lt;br&gt;2. Enters captcha&lt;br&gt;3. Requests for OTP&lt;/font&gt;&lt;span style=&quot;background-color: rgb(255 , 255 , 255) ; letter-spacing: -0.07px&quot;&gt;&lt;br&gt;&lt;/span&gt;" style="rounded=1;whiteSpace=wrap;html=1;fillColor=#F8CECC;" vertex="1" parent="1">
          <mxGeometry x="600" y="150" width="150" height="120" as="geometry" />
        </mxCell>
        <mxCell id="_Pa6N6d9jXE5rgT0WQsV-8" value="" style="edgeStyle=orthogonalEdgeStyle;rounded=0;orthogonalLoop=1;jettySize=auto;html=1;entryX=0;entryY=0.5;entryDx=0;entryDy=0;" edge="1" parent="1" source="_Pa6N6d9jXE5rgT0WQsV-9">
          <mxGeometry relative="1" as="geometry">
            <mxPoint x="1030" y="210.005" as="targetPoint" />
          </mxGeometry>
        </mxCell>
        <mxCell id="_Pa6N6d9jXE5rgT0WQsV-9" value="&lt;font style=&quot;font-size: 14px&quot;&gt;Gets a message:&lt;br&gt;OTP has been sent to 9xxxxxxxx90&lt;/font&gt;" style="rounded=1;whiteSpace=wrap;html=1;fillColor=#F8CECC;" vertex="1" parent="1">
          <mxGeometry x="840" y="170" width="140" height="80" as="geometry" />
        </mxCell>
        <mxCell id="_Pa6N6d9jXE5rgT0WQsV-10" value="&lt;font style=&quot;font-size: 14px&quot;&gt;Gets a notification of the transaction over registered email Id &amp;amp; phone number&lt;/font&gt;" style="rounded=1;whiteSpace=wrap;html=1;fillColor=#F8CECC;" vertex="1" parent="1">
          <mxGeometry x="1240" y="162.19" width="150" height="95.62" as="geometry" />
        </mxCell>
        <mxCell id="_Pa6N6d9jXE5rgT0WQsV-11" value="After successful validation, a session is created" style="text;html=1;strokeColor=none;fillColor=none;align=center;verticalAlign=middle;whiteSpace=wrap;rounded=0;" vertex="1" parent="1">
          <mxGeometry x="760" y="160" width="70" height="20" as="geometry" />
        </mxCell>
        <mxCell id="_Pa6N6d9jXE5rgT0WQsV-12" value="&lt;div style=&quot;text-align: center ; font-size: 14px&quot;&gt;&lt;b&gt;&lt;font style=&quot;font-size: 14px&quot;&gt;Message #1:&lt;/font&gt;&lt;/b&gt;&lt;/div&gt;&lt;font style=&quot;font-size: 14px&quot;&gt;&lt;div style=&quot;text-align: center&quot;&gt;&lt;span&gt;Your mobile number has now been verified.&lt;/span&gt;&lt;/div&gt;&lt;div style=&quot;text-align: center&quot;&gt;&lt;span&gt;&lt;b&gt;Message #2:&lt;/b&gt;&lt;/span&gt;&lt;/div&gt;&lt;div style=&quot;text-align: center&quot;&gt;&lt;span&gt;Your mobile number is already verified.&lt;/span&gt;&lt;/div&gt;&lt;div style=&quot;text-align: center&quot;&gt;&lt;br&gt;&lt;/div&gt;&lt;div style=&quot;text-align: center&quot;&gt;&lt;br&gt;&lt;/div&gt;&lt;div style=&quot;text-align: center&quot;&gt;&lt;span&gt;&lt;b&gt;Message #3:&lt;/b&gt;&lt;/span&gt;&lt;/div&gt;&lt;div style=&quot;text-align: center&quot;&gt;There is no mobile number associated with the entered UIN/VID. Please update your mobile number and then try to verify it.&lt;/div&gt;&lt;/font&gt;" style="text;whiteSpace=wrap;html=1;" vertex="1" parent="1">
          <mxGeometry x="770" y="290" width="290" height="180" as="geometry" />
        </mxCell>
        <mxCell id="_Pa6N6d9jXE5rgT0WQsV-13" value="" style="edgeStyle=orthogonalEdgeStyle;rounded=0;orthogonalLoop=1;jettySize=auto;html=1;" edge="1" parent="1" source="_Pa6N6d9jXE5rgT0WQsV-14" target="_Pa6N6d9jXE5rgT0WQsV-10">
          <mxGeometry relative="1" as="geometry" />
        </mxCell>
        <mxCell id="_Pa6N6d9jXE5rgT0WQsV-14" value="&lt;font style=&quot;font-size: 14px&quot;&gt;Gets a message (#1, #2 or&amp;nbsp; #3) on case basis&lt;/font&gt;" style="rounded=1;whiteSpace=wrap;html=1;fillColor=#F8CECC;" vertex="1" parent="1">
          <mxGeometry x="1030" y="162.19" width="150" height="95.62" as="geometry" />
        </mxCell>
      </root>
    </mxGraphModel>
  </diagram>
</mxfile>
